<svg width="22" height="22" viewBox="0 0 22 22" fill="none" xmlns="http://www.w3.org/2000/svg">
<path d="M18.2548 19.3218L19.0149 20.8419C19.2163 21.2447 19.5525 21.4757 19.9375 21.4757C20.3225 21.4757 20.6587 21.2447 20.8601 20.8419L21.6202 19.3218C21.8367 18.8883 22 18.196 22 17.7117V1.89917C22 1.14086 21.3833 0.52417 20.625 0.52417H19.25C18.4917 0.52417 17.875 1.14086 17.875 1.89917H17.1875C16.4292 1.89917 15.8125 2.51586 15.8125 3.27417V6.02417C15.8125 6.40367 16.1205 6.71167 16.5 6.71167C16.8795 6.71167 17.1875 6.40367 17.1875 6.02417V3.27417H17.875V17.7117C17.875 18.196 18.0383 18.8883 18.2548 19.3218ZM19.25 1.89917H20.625V17.7117C20.625 17.9815 20.5109 18.4652 20.3899 18.7068L19.9375 19.6116L19.4851 18.7065C19.3641 18.4652 19.25 17.9815 19.25 17.7117V1.89917Z" fill="#637381"/>
<path d="M1.375 21.1492H13.75C14.5083 21.1492 15.125 20.5325 15.125 19.7742V6.02417C15.125 5.46042 14.8359 4.76261 14.4375 4.36454L11.2846 1.21133C10.8859 0.813264 10.1881 0.52417 9.625 0.52417H1.375C0.616687 0.52417 0 1.14086 0 1.89917V19.7742C0 20.5325 0.616687 21.1492 1.375 21.1492ZM12.7775 4.64917H11V2.87129L12.7775 4.64917ZM1.375 1.89917H9.625V4.64917C9.625 5.40748 10.2417 6.02417 11 6.02417H13.75V19.7742H1.375V1.89917Z" fill="#637381"/>
<path d="M3.4375 5.33667H7.21875C7.59825 5.33667 7.90625 5.02867 7.90625 4.64917C7.90625 4.26967 7.59825 3.96167 7.21875 3.96167H3.4375C3.058 3.96167 2.75 4.26967 2.75 4.64917C2.75 5.02867 3.058 5.33667 3.4375 5.33667Z" fill="#637381" fill-opacity="0.48"/>
<path d="M11.6875 7.39917H3.4375C3.058 7.39917 2.75 7.70717 2.75 8.08667C2.75 8.46617 3.058 8.77417 3.4375 8.77417H11.6875C12.067 8.77417 12.375 8.46617 12.375 8.08667C12.375 7.70717 12.067 7.39917 11.6875 7.39917Z" fill="#637381" fill-opacity="0.48"/>
<path d="M11.6875 10.1492H3.4375C3.058 10.1492 2.75 10.4572 2.75 10.8367C2.75 11.2162 3.058 11.5242 3.4375 11.5242H11.6875C12.067 11.5242 12.375 11.2162 12.375 10.8367C12.375 10.4572 12.067 10.1492 11.6875 10.1492Z" fill="#637381" fill-opacity="0.48"/>
<path d="M11.6875 12.8992H3.4375C3.058 12.8992 2.75 13.2072 2.75 13.5867C2.75 13.9662 3.058 14.2742 3.4375 14.2742H11.6875C12.067 14.2742 12.375 13.9662 12.375 13.5867C12.375 13.2072 12.067 12.8992 11.6875 12.8992Z" fill="#637381" fill-opacity="0.48"/>
<path d="M11.6875 15.6492H3.4375C3.058 15.6492 2.75 15.9572 2.75 16.3367C2.75 16.7162 3.058 17.0242 3.4375 17.0242H11.6875C12.067 17.0242 12.375 16.7162 12.375 16.3367C12.375 15.9572 12.067 15.6492 11.6875 15.6492Z" fill="#637381" fill-opacity="0.48"/>
</svg>
