<svg width="22" height="22" viewBox="0 0 22 22" fill="none" xmlns="http://www.w3.org/2000/svg">
<path d="M19.6087 6.21741H15.7258L12.931 1.20184C12.5706 0.470766 11.8165 0 11 0C10.2012 0 9.47729 0.436047 9.10178 1.13932C9.10032 1.14189 9.09852 1.14426 9.09706 1.14688L6.27397 6.21741H2.39131C1.2046 6.21741 0.239136 7.18287 0.239136 8.36958V19.8478C0.239136 21.0345 1.2046 22 2.39131 22H19.6087C20.7954 22 21.7609 21.0345 21.7609 19.8478V8.36958C21.7609 7.18287 20.7954 6.21741 19.6087 6.21741ZM11 1.43477C11.3842 1.43477 11.7174 1.7453 11.7174 2.15218C11.7174 2.54775 11.3956 2.86958 11 2.86958C10.6044 2.86958 10.2826 2.54775 10.2826 2.15218C10.2826 1.75433 10.6041 1.43477 11 1.43477ZM9.38727 3.57504C9.78194 4.02183 10.3584 4.30435 11 4.30435C11.641 4.30435 12.2171 4.02235 12.6116 3.57633L14.0834 6.21736H7.91619L9.38727 3.57504ZM20.3261 19.8478C20.3261 20.2434 20.0042 20.5652 19.6087 20.5652H2.39131C1.99574 20.5652 1.67391 20.2434 1.67391 19.8478V8.36958C1.67391 7.97401 1.99574 7.65218 2.39131 7.65218C3.32773 7.65218 18.6488 7.65218 19.6087 7.65218C20.0043 7.65218 20.3261 7.97401 20.3261 8.36958L20.3261 19.8478Z" fill="#637381"/>
<path d="M18.1739 9.08691H3.82605C3.42988 9.08691 3.10864 9.40811 3.10864 9.80432V18.413C3.10864 18.8092 3.42983 19.1304 3.82605 19.1304H18.1739C18.57 19.1304 18.8913 18.8092 18.8913 18.413V9.80432C18.8912 9.40811 18.57 9.08691 18.1739 9.08691ZM17.4565 17.6956H4.54341V10.5217H17.4565V17.6956V17.6956Z" fill="#637381" fill-opacity="0.48"/>
<path d="M11 14.8262H6.69568C6.29951 14.8262 5.97827 15.1474 5.97827 15.5436C5.97827 15.9398 6.29946 16.261 6.69568 16.261H11C11.3962 16.261 11.7174 15.9398 11.7174 15.5436C11.7174 15.1474 11.3962 14.8262 11 14.8262Z" fill="#637381"/>
<path d="M15.3044 11.9565H6.69568C6.29951 11.9565 5.97827 12.2777 5.97827 12.6739C5.97827 13.0702 6.29946 13.3914 6.69568 13.3914H15.3044C15.7006 13.3914 16.0218 13.0702 16.0218 12.6739C16.0218 12.2777 15.7006 11.9565 15.3044 11.9565Z" fill="#637381" fill-opacity="0.48"/>
</svg>
