<svg width="22" height="23" viewBox="0 0 22 23" fill="none" xmlns="http://www.w3.org/2000/svg">
<path d="M21.2979 20.1952V11.9284C21.2979 5.37631 15.9626 0.0410156 9.41051 0.0410156C8.8957 0.0410156 8.47447 0.462241 8.47447 0.977052V7.71635H1.79455C1.74467 7.71189 1.69362 7.71163 1.64158 7.71635L0.892764 7.76315C0.377952 7.76315 -0.0432729 8.23117 0.00356334 8.69918C0.0439972 9.14404 0.364159 9.4835 0.752384 9.56767V20.1843C0.326475 20.2717 0.00356334 20.6506 0.00356334 21.1014C0.00356334 21.6162 0.424788 22.0374 0.9396 22.0374H1.68842H9.41055H20.3619H21.064C21.5788 22.0374 22 21.6162 22 21.1014C22 20.6673 21.7005 20.2998 21.2979 20.1952ZM19.4259 11.9284V20.1654H10.3465V8.65239C10.3465 8.55094 10.33 8.45319 10.2998 8.36149V1.91305C15.401 2.38106 19.4259 6.68673 19.4259 11.9284ZM8.47452 20.1654H6.46206V16.3745C6.46206 15.8597 6.04084 15.4385 5.52603 15.4385C5.01121 15.4385 4.58999 15.8597 4.58999 16.3745V20.1654H2.57758C2.57758 20.0726 2.57758 9.58838 2.57758 9.58838H8.47447L8.47452 20.1654Z" fill="#637381"/>
<path d="M14.8862 9.63522C15.401 9.63522 15.8223 9.21399 15.8223 8.69918V8.37158C15.8223 7.85677 15.401 7.43555 14.8862 7.43555C14.3714 7.43555 13.9502 7.85677 13.9502 8.37158V8.69918C13.9502 9.21399 14.3714 9.63522 14.8862 9.63522Z" fill="#637381" fill-opacity="0.48"/>
<path d="M14.8862 13.9409C15.401 13.9409 15.8223 13.5665 15.8223 13.0048V12.6772C15.8223 12.1624 15.401 11.7412 14.8862 11.7412C14.3714 11.7412 13.9502 12.1624 13.9502 12.6772V13.0048C13.9502 13.5197 14.3714 13.9409 14.8862 13.9409Z" fill="#637381" fill-opacity="0.48"/>
<path d="M14.8862 18.2934C15.401 18.2934 15.8223 17.919 15.8223 17.3574V17.0298C15.8223 16.515 15.401 16.0938 14.8862 16.0938C14.3714 16.0938 13.9502 16.515 13.9502 17.0298V17.3574C13.9502 17.8722 14.3714 18.2934 14.8862 18.2934Z" fill="#637381" fill-opacity="0.48"/>
</svg>
