<svg width="22" height="22" viewBox="0 0 22 22" fill="none" xmlns="http://www.w3.org/2000/svg">
<path d="M20.1949 7.99787H19.1885C19.0633 7.99787 18.9446 8.02685 18.8387 8.07836H17.5381V5.42163C17.5381 4.97884 17.1758 4.61654 16.733 4.61654H14.4385V2.80509C14.4385 2.3623 14.0762 2 13.6334 2H9.12499C8.6822 2 8.3199 2.3623 8.3199 2.80509V4.61654H6.26694C5.82415 4.61654 5.46185 4.97884 5.46185 5.42163V8.03813H4.06164C3.98279 8.01215 3.89873 7.99787 3.81145 7.99787H2.80509C2.3623 7.99787 2 8.36016 2 8.80295C2 9.24574 2.3623 9.60804 2.80509 9.60804H3.00637V20.1546C3.00637 20.5974 3.36867 20.9597 3.81145 20.9597H9.56781H13.4725H19.1885C19.6313 20.9597 19.9534 20.5974 19.9936 20.2351V9.60804H20.1949C20.5974 9.60804 21 9.24574 21 8.80295C21 8.36016 20.6377 7.99787 20.1949 7.99787ZM10.3326 19.3898V14.5996C10.3326 13.9555 10.8559 13.4322 11.5 13.4322C12.1441 13.4322 12.6674 13.9555 12.6674 14.5996V19.3898H10.3326ZM18.3835 19.3898H14.2373V14.5996C14.2373 13.1102 12.9894 11.8623 11.5 11.8623C10.0106 11.8623 8.76269 13.0699 8.76269 14.5996V19.3898H4.6165V9.68857H6.22668C6.66946 9.68857 7.03176 9.32627 7.03176 8.88348V6.22671H9.08472C9.52751 6.22671 9.88981 5.86441 9.88981 5.42163V3.61017H12.7881V5.3411C12.7881 5.78389 13.1504 6.14619 13.5932 6.14619H15.9279V8.80295C15.9279 9.24574 16.2902 9.60804 16.733 9.60804H18.3835V19.3898Z" fill="#637381"/>
</svg>
