<svg width="22" height="22" viewBox="0 0 22 22" fill="none" xmlns="http://www.w3.org/2000/svg">
<path d="M10.9206 10.1111C12.8492 10.1111 14.4127 8.51925 14.4127 6.55556C14.4127 4.59188 12.8492 3 10.9206 3C8.99202 3 7.42857 4.59188 7.42857 6.55556C7.42857 8.51925 8.99202 10.1111 10.9206 10.1111Z" fill="#637381" fill-opacity="0.48"/>
<path d="M16.1587 19C16.6409 19 17.0317 18.602 17.0317 18.1111C17.0317 14.6747 14.2957 11.8889 10.9206 11.8889C7.54556 11.8889 4.80952 14.6747 4.80952 18.1111C4.80952 18.602 5.20039 19 5.68254 19H16.1587Z" fill="#637381"/>
<path d="M6.93413 10.9192C6.93413 11.9903 6.04853 12.8586 4.95608 12.8586C3.86364 12.8586 2.97804 11.9903 2.97804 10.9192C2.97804 9.84807 3.86364 8.97977 4.95608 8.97977C6.04853 8.97977 6.93413 9.84807 6.93413 10.9192Z" fill="#637381" fill-opacity="0.48"/>
<path d="M19.0221 10.9192C19.0221 11.9903 18.1365 12.8586 17.0441 12.8586C15.9516 12.8586 15.066 11.9903 15.066 10.9192C15.066 9.84807 15.9516 8.97977 17.0441 8.97977C18.1365 8.97977 19.0221 9.84807 19.0221 10.9192Z" fill="#637381" fill-opacity="0.48"/>
<path d="M16.3034 13.8253C17.1907 14.7759 17.786 16.0118 17.9428 17.3839H20.529C20.7891 17.3839 21 17.1668 21 16.899C21 15.0246 19.524 13.505 17.7033 13.505C17.2028 13.505 16.7283 13.6199 16.3034 13.8253Z" fill="#637381"/>
<path d="M3.89844 17.3839H1.47096C1.21086 17.3839 1 17.1668 1 16.899C1 15.0246 2.476 13.505 4.29674 13.505C4.75423 13.505 5.18996 13.601 5.58598 13.7744C4.67212 14.7316 4.05813 15.9871 3.89844 17.3839Z" fill="#637381"/>
</svg>
