<svg width="22" height="22" viewBox="0 0 22 22" fill="none" xmlns="http://www.w3.org/2000/svg">
<path d="M21.0682 0.0202637H0.936266C0.421095 0.0202637 0 0.441359 0 0.956529V15.7621C0 16.2772 0.421095 16.6983 0.936266 16.6983H7.14966V20.1074H5.09346C4.57829 20.1074 4.1572 20.5285 4.1572 21.0437C4.1572 21.5589 4.57829 21.9799 5.09346 21.9799H16.8617C17.3769 21.9799 17.798 21.5589 17.798 21.0437C17.798 20.5285 17.3769 20.1074 16.8617 20.1074H14.7607V16.6983H21.0189C21.5341 16.6983 21.9552 16.2772 22 15.8113V0.956529C22 0.441359 21.5789 0.0202637 21.0682 0.0202637ZM12.942 20.1029H9.01772V16.6939H12.942V20.1029ZM20.1319 14.8706H1.82325V1.84352H20.1319V14.8706Z" fill="#637381"/>
<path d="M10.3527 10.4044C10.3975 10.8703 10.617 11.1973 11.3785 11.1973C11.8937 11.1525 12.2207 10.6821 12.1714 10.1714L11.9878 8.74239L13.9633 10.718C14.3352 11.0898 14.8996 11.0898 15.2714 10.718C15.6432 10.3461 15.6432 9.78169 15.2714 9.40987L13.2869 7.41639L14.7428 7.60006C15.258 7.64485 15.7239 7.31783 15.7687 6.80714C15.8135 6.29197 15.4864 5.82608 14.9758 5.78128L10.8678 5.26611C10.5856 5.26611 10.3079 5.36019 10.1197 5.54834C9.88677 5.73649 9.7927 6.01423 9.8375 6.29645L10.3527 10.4044Z" fill="#637381" fill-opacity="0.48"/>
</svg>
