<svg xmlns="http://www.w3.org/2000/svg" viewBox="0 0 451.59 92.01"><defs><style>.cls-1{fill:#0c0c0c;}</style></defs><title>Baxtage-black</title><g id="Слой_2" data-name="Слой 2"><g id="Шар_1" data-name="Шар 1"><path class="cls-1" d="M0,0H12.44V24.8a24.36,24.36,0,0,1,3.87-2.14,36.37,36.37,0,0,1,4.79-1.77,44.91,44.91,0,0,1,5.3-1.2,34.65,34.65,0,0,1,5.46-.44A34.81,34.81,0,0,1,43.44,21.1a26.74,26.74,0,0,1,9.06,5.21,24,24,0,0,1,5.91,8.05,24.93,24.93,0,0,1,2.12,10.36,24.89,24.89,0,0,1-2.23,10.7,24.07,24.07,0,0,1-6.16,8.16,27.88,27.88,0,0,1-9.33,5.21,36.23,36.23,0,0,1-11.7,1.83,40.75,40.75,0,0,1-5.32-.34,46.12,46.12,0,0,1-5.05-.92A37.76,37.76,0,0,1,16.2,68a25.85,25.85,0,0,1-3.76-1.79v3.58H0ZM12.44,54.14a22,22,0,0,0,4,2.56,27.39,27.39,0,0,0,4.28,1.73,28.45,28.45,0,0,0,4.42,1,30.75,30.75,0,0,0,4.33.31,23.35,23.35,0,0,0,7.63-1.15,16.81,16.81,0,0,0,5.63-3.18,13.87,13.87,0,0,0,3.51-4.75,14.43,14.43,0,0,0,1.22-5.93,13.52,13.52,0,0,0-1.2-5.63,13.77,13.77,0,0,0-3.45-4.64,16.79,16.79,0,0,0-5.42-3.16,20.75,20.75,0,0,0-7.13-1.15,26.88,26.88,0,0,0-5,.48A28.74,28.74,0,0,0,20.37,32,25.41,25.41,0,0,0,16,34.13,18.36,18.36,0,0,0,12.44,37Z"/><path class="cls-1" d="M67.64,54.1a13.74,13.74,0,0,1,1.56-6.52,14.15,14.15,0,0,1,4.66-5.06,23.86,23.86,0,0,1,7.76-3.28,45.12,45.12,0,0,1,10.82-1.16,73.19,73.19,0,0,1,9.65.68,86,86,0,0,1,10.45,2.06,10,10,0,0,0-1.43-4.35A11,11,0,0,0,107.72,33a16.91,16.91,0,0,0-5.21-2.25A27.44,27.44,0,0,0,95.6,30a46.11,46.11,0,0,0-4.63.25c-1.68.17-3.42.42-5.21.76s-3.57.76-5.32,1.26a34.69,34.69,0,0,0-4.89,1.81L71.76,23.83q2.82-1,6-1.85t6.58-1.45c2.24-.4,4.49-.72,6.73-.94a63.72,63.72,0,0,1,6.51-.34q13.92,0,20.69,7.11t6.76,21.77V69.74H112.62V65.07a40.5,40.5,0,0,1-4.22,2.14,37.32,37.32,0,0,1-5,1.77,46.56,46.56,0,0,1-5.77,1.2,46.91,46.91,0,0,1-6.54.44,37,37,0,0,1-10.19-1.26,22.26,22.26,0,0,1-7.34-3.49,14.77,14.77,0,0,1-4.43-5.24A14.41,14.41,0,0,1,67.64,54.1Zm13.12-.42A4.66,4.66,0,0,0,81.39,56a5.72,5.72,0,0,0,2,2A12.17,12.17,0,0,0,87,59.37a22.47,22.47,0,0,0,5.23.53,33.85,33.85,0,0,0,6.35-.59,37.57,37.57,0,0,0,5.72-1.55,29.9,29.9,0,0,0,4.79-2.23,19.64,19.64,0,0,0,3.57-2.61V50.74c-1.91-.54-3.79-1-5.65-1.35s-3.65-.65-5.34-.86-3.29-.36-4.79-.44S94,48,92.91,48a31,31,0,0,0-5.8.46,13.81,13.81,0,0,0-3.75,1.24,4.89,4.89,0,0,0-2,1.83A4.34,4.34,0,0,0,80.76,53.68Z"/><path class="cls-1" d="M250.93,54.1a13.73,13.73,0,0,1,1.55-6.52,14.1,14.1,0,0,1,4.67-5.06,23.8,23.8,0,0,1,7.75-3.28,45.21,45.21,0,0,1,10.83-1.16,73,73,0,0,1,9.64.68,86,86,0,0,1,10.45,2.06,10,10,0,0,0-1.43-4.35A11,11,0,0,0,291,33a17.08,17.08,0,0,0-5.22-2.25,27.39,27.39,0,0,0-6.91-.8c-1.4,0-2.94.08-4.63.25s-3.41.42-5.21.76-3.56.76-5.31,1.26a34.37,34.37,0,0,0-4.9,1.81l-3.78-10.22q2.81-1,6-1.85t6.58-1.45c2.24-.4,4.48-.72,6.72-.94a63.76,63.76,0,0,1,6.52-.34q13.91,0,20.68,7.11t6.76,21.77V69.74H295.9V65.07a39.53,39.53,0,0,1-4.22,2.14,37.68,37.68,0,0,1-5,1.77,45.33,45.33,0,0,1-12.32,1.64,37.07,37.07,0,0,1-10.19-1.26,22.26,22.26,0,0,1-7.34-3.49,14.77,14.77,0,0,1-4.43-5.24A14.4,14.4,0,0,1,250.93,54.1ZM264,53.68a4.66,4.66,0,0,0,.63,2.33,5.72,5.72,0,0,0,2,2,12.29,12.29,0,0,0,3.55,1.38,22.47,22.47,0,0,0,5.23.53,33.78,33.78,0,0,0,6.35-.59,37.25,37.25,0,0,0,5.72-1.55,29.9,29.9,0,0,0,4.79-2.23,19.64,19.64,0,0,0,3.57-2.61V50.74c-1.9-.54-3.79-1-5.65-1.35s-3.64-.65-5.34-.86-3.29-.36-4.79-.44-2.81-.13-3.93-.13a31,31,0,0,0-5.8.46,13.73,13.73,0,0,0-3.74,1.24,4.86,4.86,0,0,0-2,1.83A4.44,4.44,0,0,0,264,53.68Z"/><path class="cls-1" d="M329.1,78.14a43.86,43.86,0,0,0,4.79,1.41c1.63.38,3.2.69,4.73.93s3,.4,4.39.5,2.65.15,3.74.15a27.91,27.91,0,0,0,8.64-1.2,18.68,18.68,0,0,0,6.14-3.22A13.06,13.06,0,0,0,365.21,72a13.51,13.51,0,0,0,1.21-5.66V64.23a26.24,26.24,0,0,1-3.74,2.1A34.35,34.35,0,0,1,358,68.1a45,45,0,0,1-5.45,1.22,38.45,38.45,0,0,1-5.95.46A33.54,33.54,0,0,1,335.32,68a27.25,27.25,0,0,1-8.95-5.13,23.13,23.13,0,0,1-5.91-7.92,24.24,24.24,0,0,1-2.12-10.26,24,24,0,0,1,2.23-10.45,23.55,23.55,0,0,1,6.15-8A28,28,0,0,1,336,21.06a36.68,36.68,0,0,1,11.69-1.81,41.39,41.39,0,0,1,5.34.34,45.45,45.45,0,0,1,5.06.92,37.21,37.21,0,0,1,4.54,1.41,24.89,24.89,0,0,1,3.76,1.79V20.13h12.45V64.06a32.48,32.48,0,0,1-2.06,12,22.92,22.92,0,0,1-6,8.76,26.12,26.12,0,0,1-9.86,5.38A45.48,45.48,0,0,1,347.43,92c-1.83,0-3.72-.07-5.68-.23s-3.93-.38-5.91-.67-3.92-.65-5.84-1-3.76-.88-5.53-1.41Zm2.31-33.63A13.4,13.4,0,0,0,336,54.71a16.53,16.53,0,0,0,5.38,3.07,21.35,21.35,0,0,0,7.11,1.11,27.54,27.54,0,0,0,5.11-.48A28.7,28.7,0,0,0,358.5,57a25.31,25.31,0,0,0,4.37-2.14,18.07,18.07,0,0,0,3.55-2.82V35.73a23,23,0,0,0-4-2.57,28.51,28.51,0,0,0-8.7-2.71,31,31,0,0,0-4.33-.31,23.87,23.87,0,0,0-7.63,1.13,17.09,17.09,0,0,0-5.63,3.09,13.5,13.5,0,0,0-3.51,4.56A13.11,13.11,0,0,0,331.41,44.51Z"/><path class="cls-1" d="M390.68,44.77a23.4,23.4,0,0,1,2.06-9.65A24.34,24.34,0,0,1,398.67,27a28.85,28.85,0,0,1,9.47-5.64,39.76,39.76,0,0,1,25.56,0,28.72,28.72,0,0,1,9.67,5.83,25,25,0,0,1,6.09,8.7,27.06,27.06,0,0,1,2.13,10.72c0,.47,0,1,0,1.53s-.05,1-.11,1.49H404.55a11.17,11.17,0,0,0,2.59,4.08,16.17,16.17,0,0,0,4.47,3.19A25.79,25.79,0,0,0,417.83,59a38.51,38.51,0,0,0,7.82.73,41,41,0,0,0,8.53-.9,64.84,64.84,0,0,0,8.12-2.29l4.2,9.5a52,52,0,0,1-4.94,2,42.35,42.35,0,0,1-5.21,1.43,51.59,51.59,0,0,1-5.68.86,61.85,61.85,0,0,1-6.24.3,48.12,48.12,0,0,1-14.67-2,31.45,31.45,0,0,1-10.55-5.51,22.66,22.66,0,0,1-6.39-8.19A24.16,24.16,0,0,1,390.68,44.77Zm47.71-4.84a12.4,12.4,0,0,0-2.08-3.84A13.74,13.74,0,0,0,432.8,33a17.6,17.6,0,0,0-4.88-2.08,22.87,22.87,0,0,0-6.09-.76,24.24,24.24,0,0,0-6.43.8,19.35,19.35,0,0,0-5.09,2.14,14.47,14.47,0,0,0-3.64,3.11,12.22,12.22,0,0,0-2.12,3.74Z"/><path class="cls-1" d="M242.22,29.47V20.13h-12V4.71h-3.93L217.8,15.4v46a8.38,8.38,0,0,0,8.38,8.38h16V60.4H230.25V29.47Z"/><polygon class="cls-1" points="201.68 69.72 182.97 47.06 183.51 46.39 216.71 4.71 202.15 4.71 170.2 44.97 168.33 47.33 186.82 69.72 201.68 69.72"/><polygon class="cls-1" points="134.96 24.93 153.67 47.59 153.13 48.27 119.93 89.95 134.5 89.95 166.44 49.68 168.31 47.33 149.82 24.93 134.96 24.93"/></g></g></svg>